<svg id="Layer_1" data-name="Layer 1" xmlns="http://www.w3.org/2000/svg" version="1.1" viewBox="0 0 220 40">
  <defs>
    <style>
      .cls-1 {
        fill: #8d7e67;
        stroke-width: 0px;
      }
    </style>
  </defs>
  <path class="cls-1" d="M15.53,31.25c-.79.15-1.6.22-2.41.22h-2.82c-1.09,0-2.06-.1-2.91-.31-.85-.2-1.57-.53-2.16-.99s-1.04-1.06-1.34-1.82c-.31-.76-.46-1.68-.46-2.77v-6.94c0-2.18.58-3.71,1.75-4.61,1.17-.9,2.85-1.34,5.05-1.34h2.86c.82,0,1.62.07,2.4.22.78.15,1.52.41,2.23.8v2.52h-7.51c-1.22,0-1.84.67-1.84,2.01v7.79c0,.77.17,1.28.51,1.53.34.25.8.37,1.39.37h7.45v2.45c-.66.43-1.38.72-2.18.87Z"/>
  <path class="cls-1" d="M32.12,31.07c-.05-.29-.09-.57-.12-.83-.03-.26-.07-.62-.12-1.07h-.1c-.14.23-.31.48-.51.75-.2.27-.46.52-.77.75s-.69.42-1.14.58c-.45.16-1.01.24-1.67.24h-2.58c-.84,0-1.56-.12-2.18-.36-.61-.24-1.12-.57-1.51-.99-.4-.42-.69-.91-.87-1.46-.18-.55-.27-1.14-.27-1.75v-1.46c0-1.56.45-2.79,1.36-3.67.91-.88,2.2-1.33,3.88-1.33h5.85v-2.89c0-.39-.08-.7-.24-.94-.16-.24-.58-.36-1.26-.36h-8.19v-2.82c.5-.25,1.19-.44,2.07-.56s1.82-.19,2.82-.19h4.25c1.75,0,3.09.4,4.05,1.21.95.8,1.43,2.01,1.43,3.62v7.82c0,.7.03,1.52.08,2.46s.18,2.02.36,3.25h-4.62ZM31.38,23.28h-4.56c-1.09,0-1.63.54-1.63,1.63v1.94c0,.59.16.96.48,1.12s.69.24,1.12.24h2.18c.27,0,.56-.03.85-.08.29-.06.56-.16.78-.31s.41-.36.56-.65c.15-.28.22-.64.22-1.07v-2.82Z"/>
  <path class="cls-1" d="M40.76,10.36v-4.18h4.96v4.18h-4.96ZM40.76,31.07V13.12h4.96v17.95h-4.96Z"/>
  <path class="cls-1" d="M51.91,35.76h-4.93l10.91-29.58h4.86l-10.85,29.58Z"/>
  <path class="cls-1" d="M69.66,35.95c-.25.69-.6,1.22-1.05,1.58-.45.36-.99.59-1.61.7-.62.1-1.3.15-2.02.15-.39,0-.87-.04-1.45-.12-.58-.08-1.13-.21-1.65-.39v-3.23h2.28c.39,0,.63-.11.75-.32.11-.22.17-.52.17-.9V13.12h4.96v19.99c0,1.2-.12,2.15-.37,2.84ZM65.07,10.36v-4.18h4.96v4.18h-4.96Z"/>
  <path class="cls-1" d="M89.92,28.47c-.34.76-.82,1.36-1.43,1.8-.61.44-1.34.75-2.19.93-.85.18-1.78.27-2.8.27h-2.55c-1.02,0-1.96-.09-2.82-.27-.86-.18-1.6-.49-2.21-.93-.61-.44-1.09-1.04-1.43-1.8-.34-.76-.51-1.71-.51-2.84v-7.48c0-1,.19-1.84.56-2.53.37-.69.87-1.25,1.5-1.68.62-.43,1.34-.74,2.16-.93.82-.19,1.67-.29,2.55-.29h2.92c.88,0,1.73.1,2.55.29.82.19,1.54.5,2.16.93.62.43,1.12.99,1.5,1.68.37.69.56,1.54.56,2.53v7.48c0,1.13-.17,2.08-.51,2.84ZM85.47,17.94c0-.66-.18-1.1-.54-1.34-.36-.24-.84-.36-1.43-.36h-2.58c-.59,0-1.07.12-1.43.36-.36.24-.54.69-.54,1.34v8.3c0,.63.19,1.08.56,1.33.37.25.86.37,1.44.37h2.55c.59,0,1.06-.12,1.43-.37.36-.25.54-.69.54-1.33v-8.3Z"/>
  <path class="cls-1" d="M110.15,28.98c-.32.62-.74,1.12-1.28,1.5s-1.14.63-1.84.78-1.4.22-2.12.22h-2.62c-1,0-1.8-.19-2.4-.56-.6-.37-1.13-.84-1.58-1.41l-.44,1.56h-3.37V6.18h4.96v7.99c.34-.39.84-.73,1.5-1.02.66-.29,1.44-.44,2.35-.44h2.79c.86,0,1.58.11,2.16.34.58.23,1.04.53,1.39.92.35.39.6.85.75,1.39.15.54.22,1.12.22,1.73v9.55c0,.93-.16,1.71-.48,2.33ZM105.66,18.18c0-.68-.16-1.15-.49-1.41-.33-.26-.77-.39-1.31-.39h-1.7c-.34,0-.78.05-1.31.14-.53.09-.99.19-1.38.31v10.51c.39.18.87.31,1.45.37.58.07,1.13.1,1.65.1h1.19c.45,0,.8-.06,1.05-.17s.44-.27.56-.46.2-.43.24-.7c.03-.27.05-.57.05-.88v-7.41Z"/>
  <path class="cls-1" d="M122.19,31.07V6.18h4.96v24.89h-4.96Z"/>
  <path class="cls-1" d="M131.77,10.36v-4.18h4.96v4.18h-4.96ZM131.77,31.07V13.12h4.96v17.95h-4.96Z"/>
  <path class="cls-1" d="M153.69,30.3c-1.03.78-2.48,1.17-4.33,1.17h-4.35c-.39,0-.79-.01-1.22-.03s-.86-.07-1.29-.14c-.43-.07-.83-.15-1.21-.25-.37-.1-.69-.22-.93-.36v-2.79h8.67c.68,0,1.13-.09,1.36-.27.23-.18.34-.49.34-.92v-1.39c0-.36-.08-.61-.24-.75s-.46-.23-.92-.27l-4.45-.44c-1.43-.14-2.52-.49-3.26-1.05-.75-.57-1.12-1.53-1.12-2.89v-2.48c0-1.38.49-2.52,1.46-3.4.97-.88,2.42-1.33,4.35-1.33h3.37c.77,0,1.54.05,2.31.14.77.09,1.47.29,2.11.61v2.82h-8.09c-.79,0-1.19.32-1.19.95v1.73c0,.25.06.44.19.56.12.12.38.21.76.25l4.59.44c1.54.16,2.7.55,3.48,1.17.78.62,1.17,1.65,1.17,3.08v2.48c0,1.45-.52,2.57-1.55,3.35Z"/>
  <path class="cls-1" d="M165.26,16.55v9.62c0,.36.06.73.19,1.09.12.36.48.54,1.07.54h4.11v2.52c-1,.52-1.94.84-2.84.97-.9.12-1.65.19-2.26.19-.68,0-1.33-.05-1.96-.15-.62-.1-1.17-.31-1.65-.63-.48-.32-.86-.75-1.14-1.29s-.42-1.26-.42-2.14v-10.71h-3.09v-3.16h3.09v-4.73l4.9-.54v5.27h5.44v3.16h-5.44Z"/>
</svg>