<?xml version="1.0" encoding="UTF-8"?>
<svg id="Layer_1" data-name="Layer 1" xmlns="http://www.w3.org/2000/svg" version="1.1" viewBox="0 0 200 200">
  <defs>
    <style>
      .cls-1 {
        fill: #000;
        stroke-width: 0px;
      }
    </style>
  </defs>
  <path class="cls-1" d="M38.57,77.02c3.12-9.35,8.19-18.15,15.32-25.65,25.34-26.81,66.4-26.81,91.74,0l6.93,7.38h-13.91c-7.18,0-12.97,6.13-12.97,13.73s5.8,13.73,12.97,13.73h45.36c7.18,0,12.97-6.13,12.97-13.73V24.43c0-7.59-5.8-13.73-12.97-13.73s-12.97,6.13-12.97,13.73v15.1l-7.09-7.55C128.49-5.56,71-5.56,35.53,31.98c-9.89,10.47-17.03,22.78-21.4,35.95-2.39,7.16,1.18,14.97,7.91,17.5,6.73,2.53,14.15-1.24,16.54-8.37v-.04ZM11.77,114.21c-2.03.64-3.97,1.8-5.55,3.52-1.62,1.72-2.72,3.78-3.28,6.01-.12.51-.24,1.07-.32,1.63-.12.73-.16,1.46-.16,2.19v47.87c0,7.59,5.8,13.73,12.97,13.73s12.97-6.13,12.97-13.73v-15.06l7.13,7.51h0c35.47,37.49,92.96,37.49,128.39,0,9.89-10.47,17.07-22.78,21.45-35.91,2.39-7.16-1.18-14.97-7.91-17.5s-14.15,1.24-16.54,8.37c-3.12,9.35-8.19,18.15-15.32,25.65-25.34,26.81-66.4,26.81-91.74,0l-.04-.04-6.93-7.34h13.95c7.18,0,12.97-6.13,12.97-13.73s-5.8-13.73-12.97-13.73H15.59c-.65,0-1.3.04-1.95.13s-1.26.21-1.86.43Z"/>
</svg>